<svg width="17" height="18" viewBox="0 0 17 18" fill="none" xmlns="http://www.w3.org/2000/svg">
<path d="M15.734 1.41176H13.383V0.529412C13.383 0.389003 13.3258 0.254345 13.2241 0.155061C13.1223 0.0557771 12.9843 0 12.8404 0C12.6965 0 12.5585 0.0557771 12.4568 0.155061C12.355 0.254345 12.2979 0.389003 12.2979 0.529412V1.41176H4.70213V0.529412C4.70213 0.389003 4.64497 0.254345 4.54322 0.155061C4.44147 0.0557771 4.30347 0 4.15957 0C4.01568 0 3.87768 0.0557771 3.77593 0.155061C3.67418 0.254345 3.61702 0.389003 3.61702 0.529412V1.41176H1.26596C0.930322 1.41214 0.608543 1.54241 0.371213 1.77399C0.133883 2.00557 0.000382927 2.31955 0 2.64706V16.7647C0.000382927 17.0922 0.133883 17.4062 0.371213 17.6378C0.608543 17.8694 0.930322 17.9996 1.26596 18H15.734C16.0697 17.9996 16.3915 17.8694 16.6288 17.6378C16.8661 17.4062 16.9996 17.0922 17 16.7647V2.64706C16.9996 2.31955 16.8661 2.00557 16.6288 1.77399C16.3915 1.54241 16.0697 1.41214 15.734 1.41176ZM1.26596 2.47059H3.61702V3.35294C3.61702 3.49335 3.67418 3.62801 3.77593 3.72729C3.87768 3.82658 4.01568 3.88235 4.15957 3.88235C4.30347 3.88235 4.44147 3.82658 4.54322 3.72729C4.64497 3.62801 4.70213 3.49335 4.70213 3.35294V2.47059H12.2979V3.35294C12.2979 3.49335 12.355 3.62801 12.4568 3.72729C12.5585 3.82658 12.6965 3.88235 12.8404 3.88235C12.9843 3.88235 13.1223 3.82658 13.2241 3.72729C13.3258 3.62801 13.383 3.49335 13.383 3.35294V2.47059H15.734C15.782 2.47066 15.8279 2.48927 15.8618 2.52235C15.8957 2.55543 15.9148 2.60028 15.9149 2.64706V5.64706H1.08511V2.64706C1.08518 2.60028 1.10425 2.55543 1.13816 2.52235C1.17206 2.48927 1.21801 2.47066 1.26596 2.47059ZM15.734 16.9412H1.26596C1.21801 16.9411 1.17206 16.9225 1.13816 16.8894C1.10425 16.8563 1.08518 16.8115 1.08511 16.7647V6.70588H15.9149V16.7647C15.9148 16.8115 15.8957 16.8563 15.8618 16.8894C15.8279 16.9225 15.782 16.9411 15.734 16.9412Z" fill="#36383F"/>
</svg>
