<svg width="41" height="41" viewBox="0 0 41 41" fill="none" xmlns="http://www.w3.org/2000/svg">
<path d="M30.2917 8.75008H40.0833V12.6667H36.1667V38.1251C36.1667 38.6445 35.9603 39.1426 35.5931 39.5098C35.2258 39.8771 34.7277 40.0834 34.2083 40.0834H6.79166C6.27228 40.0834 5.77417 39.8771 5.40691 39.5098C5.03966 39.1426 4.83333 38.6445 4.83333 38.1251V12.6667H0.916664V8.75008H10.7083V2.87508C10.7083 2.3557 10.9147 1.85759 11.2819 1.49033C11.6492 1.12307 12.1473 0.916748 12.6667 0.916748H28.3333C28.8527 0.916748 29.3508 1.12307 29.7181 1.49033C30.0853 1.85759 30.2917 2.3557 30.2917 2.87508V8.75008ZM32.25 12.6667H8.75V36.1667H32.25V12.6667ZM14.625 18.5417H18.5417V30.2917H14.625V18.5417ZM22.4583 18.5417H26.375V30.2917H22.4583V18.5417ZM14.625 4.83341V8.75008H26.375V4.83341H14.625Z" fill="#FF601C"/>
</svg>
