<svg width="172" height="66" viewBox="0 0 172 66" fill="none" xmlns="http://www.w3.org/2000/svg">
<path d="M63 35.6686C62.5199 35.5059 61.8481 35.3435 60.9841 35.181C60.152 34.9862 59.176 34.8887 58.0561 34.8887C57.4159 34.8887 56.7279 34.9537 55.9921 35.0835C55.2879 35.2136 54.7921 35.3273 54.5041 35.4248V55.8463H48.6959V31.5745C49.816 31.1521 51.208 30.7622 52.872 30.4048C54.568 30.0147 56.4399 29.8199 58.488 29.8199C58.872 29.8199 59.3201 29.8523 59.8321 29.9174C60.3439 29.9498 60.8559 30.0147 61.3679 30.1122C61.8799 30.1774 62.376 30.2747 62.8559 30.4048C63.3361 30.5023 63.7199 30.5998 64.0079 30.6971L63 35.6686ZM76.8874 51.7034C78.6793 51.7034 80.0394 51.6059 80.9673 51.4111V44.8801C80.6474 44.7825 80.1835 44.685 79.5754 44.5875C78.9673 44.4902 78.2955 44.4415 77.5594 44.4415C76.9195 44.4415 76.2633 44.4902 75.5915 44.5875C74.9513 44.685 74.3594 44.8639 73.8155 45.1238C73.3035 45.3838 72.8873 45.7574 72.5674 46.2448C72.2473 46.6995 72.0873 47.2846 72.0873 47.9993C72.0873 49.3966 72.5194 50.3713 73.3834 50.9235C74.2474 51.4434 75.4153 51.7034 76.8874 51.7034ZM76.4074 29.7224C78.3273 29.7224 79.9433 29.9662 81.2553 30.4535C82.5674 30.9409 83.6073 31.6232 84.3755 32.5006C85.1755 33.3778 85.7353 34.4499 86.0554 35.7171C86.4074 36.952 86.5833 38.3167 86.5833 39.8113V55.2614C85.6875 55.4562 84.3274 55.6838 82.5034 55.9438C80.7114 56.2361 78.6793 56.3824 76.4074 56.3824C74.9035 56.3824 73.5275 56.2361 72.2794 55.9438C71.0314 55.6513 69.9593 55.1801 69.0635 54.5303C68.1995 53.8803 67.5115 53.0355 66.9995 51.9959C66.5193 50.9561 66.2794 49.6727 66.2794 48.1456C66.2794 46.6833 66.5514 45.4487 67.0953 44.4415C67.6713 43.4342 68.4394 42.6218 69.3995 42.0046C70.3593 41.3546 71.4635 40.8998 72.7113 40.6399C73.9915 40.3473 75.3194 40.2011 76.6954 40.2011C77.3354 40.2011 78.0075 40.2498 78.7114 40.3473C79.4153 40.4123 80.1673 40.5424 80.9673 40.7374V39.7625C80.9673 39.0801 80.8874 38.4304 80.7274 37.8129C80.5673 37.1955 80.2793 36.6594 79.8634 36.2047C79.4793 35.7171 78.9514 35.3435 78.2793 35.0835C77.6393 34.8238 76.8234 34.6937 75.8315 34.6937C74.4873 34.6937 73.2554 34.7912 72.1353 34.9862C71.0154 35.181 70.1034 35.4086 69.3995 35.6686L68.6794 30.8921C69.4154 30.6321 70.4875 30.3722 71.8954 30.1122C73.3035 29.8523 74.8074 29.7224 76.4074 29.7224ZM93.696 31.1846C94.8161 30.8595 96.272 30.551 98.0639 30.2585C99.8561 29.9662 101.84 29.8199 104.016 29.8199C106.064 29.8199 107.776 30.1122 109.152 30.6971C110.528 31.2496 111.616 32.0456 112.416 33.0854C113.248 34.0927 113.824 35.3273 114.144 36.7895C114.496 38.2192 114.672 39.7951 114.672 41.517V55.8463H108.864V42.4432C108.864 41.0785 108.768 39.9249 108.576 38.9826C108.416 38.008 108.128 37.2281 107.712 36.6433C107.328 36.0258 106.784 35.5873 106.08 35.3273C105.408 35.035 104.576 34.8887 103.584 34.8887C102.848 34.8887 102.08 34.9375 101.28 35.035C100.48 35.1323 99.888 35.2136 99.5039 35.2785V55.8463H93.696V31.1846ZM126.334 42.4432C126.334 44.945 126.862 46.7809 127.918 47.9505C129.006 49.0879 130.398 49.6563 132.094 49.6563C133.022 49.6563 133.886 49.5265 134.686 49.2665C135.518 49.0065 136.19 48.6978 136.702 48.3406V35.1323C136.286 35.035 135.774 34.9537 135.166 34.8887C134.558 34.7912 133.79 34.7425 132.862 34.7425C130.75 34.7425 129.134 35.4574 128.014 36.887C126.894 38.2841 126.334 40.1361 126.334 42.4432ZM142.51 53.2631C142.51 57.3247 141.486 60.2977 139.438 62.1823C137.422 64.0667 134.318 65.009 130.126 65.009C128.59 65.009 127.086 64.8791 125.614 64.6192C124.174 64.3592 122.862 64.0179 121.678 63.5955L122.734 58.5755C123.726 58.9979 124.846 59.3392 126.094 59.5991C127.374 59.8591 128.75 59.9889 130.222 59.9889C132.558 59.9889 134.222 59.5016 135.214 58.5267C136.206 57.5521 136.702 56.1062 136.702 54.189V53.2144C136.126 53.5067 135.358 53.7992 134.398 54.0915C133.47 54.3841 132.398 54.5303 131.182 54.5303C129.582 54.5303 128.11 54.2704 126.766 53.7505C125.454 53.2306 124.318 52.4671 123.358 51.4598C122.43 50.4526 121.694 49.2016 121.15 47.707C120.638 46.1798 120.382 44.4251 120.382 42.4432C120.382 40.5911 120.654 38.8851 121.198 37.3256C121.774 35.7659 122.59 34.4337 123.646 33.329C124.734 32.2242 126.046 31.3633 127.582 30.7458C129.118 30.1286 130.862 29.8199 132.814 29.8199C134.702 29.8199 136.494 29.9662 138.19 30.2585C139.886 30.551 141.326 30.8595 142.51 31.1846V53.2631ZM148.507 43.223C148.507 40.9809 148.827 39.0152 149.467 37.3256C150.139 35.636 151.019 34.2387 152.107 33.1342C153.195 31.9969 154.443 31.1521 155.851 30.5998C157.259 30.0147 158.699 29.7224 160.171 29.7224C163.627 29.7224 166.315 30.811 168.235 32.9879C170.187 35.1649 171.163 38.4142 171.163 42.7355C171.163 43.0606 171.147 43.4342 171.115 43.8566C171.115 44.2465 171.099 44.6039 171.067 44.9288H154.507C154.667 46.9759 155.371 48.568 156.619 49.7051C157.899 50.8098 159.739 51.3623 162.139 51.3623C163.547 51.3623 164.827 51.2322 165.979 50.9723C167.163 50.7123 168.091 50.4362 168.763 50.1439L169.531 54.9689C169.211 55.1314 168.763 55.3102 168.187 55.505C167.643 55.6674 167.003 55.8137 166.267 55.9438C165.563 56.1062 164.795 56.2361 163.963 56.3336C163.131 56.4311 162.283 56.4799 161.419 56.4799C159.211 56.4799 157.291 56.155 155.659 55.505C154.027 54.8226 152.683 53.8967 151.627 52.727C150.571 51.5248 149.787 50.1275 149.275 48.5354C148.763 46.9107 148.507 45.14 148.507 43.223ZM165.355 40.5911C165.355 39.7787 165.243 39.0152 165.019 38.3003C164.795 37.553 164.459 36.9194 164.011 36.3995C163.595 35.8472 163.067 35.4248 162.427 35.1323C161.819 34.8074 161.083 34.6449 160.219 34.6449C159.323 34.6449 158.539 34.8238 157.867 35.181C157.195 35.5059 156.619 35.9447 156.139 36.497C155.691 37.0495 155.339 37.6831 155.083 38.3978C154.827 39.1127 154.651 39.8438 154.555 40.5911H165.355Z" fill="#FC6027"/>
<path d="M10.5041 36.3425C10.5041 38.552 10.7601 40.545 11.2721 42.3212C11.8268 44.0973 12.5948 45.6353 13.5761 46.935C14.6001 48.1914 15.8374 49.1661 17.2881 49.8593C18.7388 50.5525 20.4028 50.8991 22.2801 50.8991C24.1147 50.8991 25.7573 50.5525 27.2082 49.8593C28.7014 49.1661 29.9388 48.1914 30.92 46.935C31.944 45.6353 32.7122 44.0973 33.2242 42.3212C33.7788 40.545 34.0561 38.552 34.0561 36.3425C34.0561 34.133 33.7788 32.1402 33.2242 30.3639C32.7122 28.5445 31.944 27.0065 30.92 25.7501C29.9388 24.4503 28.7014 23.4539 27.2082 22.7607C25.7573 22.0675 24.1147 21.7209 22.2801 21.7209C20.4028 21.7209 18.7388 22.0892 17.2881 22.8257C15.8374 23.5189 14.6001 24.5153 13.5761 25.815C12.5948 27.0714 11.8268 28.6094 11.2721 30.4289C10.7601 32.2051 10.5041 34.1764 10.5041 36.3425ZM44.3601 36.3425C44.3601 40.1981 43.7841 43.5993 42.6322 46.5452C41.5228 49.4477 39.9867 51.8955 38.024 53.8885C36.0613 55.8378 33.7148 57.3109 30.984 58.3073C28.2962 59.3037 25.3948 59.8021 22.2801 59.8021C19.2508 59.8021 16.3921 59.3037 13.7041 58.3073C11.0161 57.3109 8.66941 55.8378 6.66408 53.8885C4.65875 51.8955 3.08008 49.4477 1.92807 46.5452C0.776074 43.5993 0.200073 40.1981 0.200073 36.3425C0.200073 32.4868 0.797406 29.1076 1.99207 26.2049C3.18674 23.2589 4.78674 20.7896 6.79207 18.7967C8.84007 16.8038 11.1868 15.3091 13.8321 14.3128C16.5201 13.3164 19.3361 12.8181 22.2801 12.8181C25.3094 12.8181 28.168 13.3164 30.856 14.3128C33.5441 15.3091 35.8908 16.8038 37.8961 18.7967C39.9013 20.7896 41.4802 23.2589 42.6322 26.2049C43.7841 29.1076 44.3601 32.4868 44.3601 36.3425Z" fill="#FC6027"/>
<path d="M123.884 20.527C122.894 20.527 121.895 20.4904 120.887 20.4173C119.879 20.3624 118.997 20.2345 118.241 20.0335V1.58292C118.637 1.50981 119.06 1.44584 119.51 1.39101C119.96 1.3179 120.419 1.26307 120.887 1.22652C121.355 1.18996 121.814 1.16255 122.264 1.14427C122.732 1.12599 123.173 1.11686 123.587 1.11686C124.721 1.11686 125.774 1.20824 126.746 1.39101C127.718 1.5555 128.555 1.83879 129.257 2.24089C129.977 2.64298 130.535 3.173 130.931 3.83098C131.327 4.48896 131.525 5.30227 131.525 6.27096C131.525 7.16651 131.309 7.93416 130.877 8.57385C130.463 9.21353 129.878 9.72529 129.122 10.1091C130.256 10.4929 131.093 11.0595 131.633 11.8088C132.173 12.5582 132.443 13.5086 132.443 14.66C132.443 16.6157 131.741 18.087 130.337 19.0739C128.933 20.0426 126.782 20.527 123.884 20.527ZM121.589 11.754V17.5387C121.967 17.5752 122.372 17.6026 122.804 17.6209C123.236 17.6392 123.632 17.6483 123.992 17.6483C124.694 17.6483 125.342 17.6026 125.936 17.5112C126.548 17.4199 127.07 17.2645 127.502 17.0452C127.952 16.8076 128.303 16.4969 128.555 16.1131C128.825 15.7292 128.96 15.2358 128.96 14.6326C128.96 13.5543 128.573 12.805 127.799 12.3846C127.025 11.9642 125.954 11.754 124.586 11.754H121.589ZM121.589 9.03989H123.992C125.288 9.03989 126.305 8.85713 127.043 8.4916C127.781 8.10778 128.15 7.43153 128.15 6.46285C128.15 5.549 127.763 4.90018 126.989 4.51636C126.233 4.13256 125.243 3.94065 124.019 3.94065C123.497 3.94065 123.029 3.94978 122.615 3.96805C122.219 3.98633 121.877 4.01376 121.589 4.05031V9.03989ZM138.767 10.7945C138.767 11.8363 138.893 12.7867 139.145 13.6457C139.397 14.4864 139.757 15.2084 140.225 15.8115C140.711 16.3964 141.296 16.8533 141.98 17.1823C142.664 17.5112 143.438 17.6758 144.302 17.6758C145.148 17.6758 145.913 17.5112 146.597 17.1823C147.281 16.8533 147.857 16.3964 148.325 15.8115C148.811 15.2084 149.18 14.4864 149.432 13.6457C149.684 12.7867 149.81 11.8363 149.81 10.7945C149.81 9.75269 149.684 8.81145 149.432 7.97071C149.18 7.11169 148.811 6.38976 148.325 5.80489C147.857 5.20176 147.281 4.73569 146.597 4.40671C145.913 4.07771 145.148 3.91322 144.302 3.91322C143.438 3.91322 142.664 4.07771 141.98 4.40671C141.296 4.73569 140.711 5.20176 140.225 5.80489C139.757 6.40802 139.397 7.12996 139.145 7.97071C138.893 8.81145 138.767 9.75269 138.767 10.7945ZM153.374 10.7945C153.374 12.4211 153.131 13.8559 152.645 15.0987C152.177 16.3415 151.529 17.3833 150.701 18.224C149.891 19.0465 148.937 19.6679 147.839 20.0883C146.741 20.5087 145.571 20.7188 144.329 20.7188C143.087 20.7188 141.908 20.5087 140.792 20.0883C139.694 19.6679 138.731 19.0465 137.903 18.224C137.093 17.3833 136.445 16.3415 135.959 15.0987C135.473 13.8559 135.23 12.4211 135.23 10.7945C135.23 9.16785 135.473 7.74225 135.959 6.51769C136.445 5.27485 137.102 4.23307 137.93 3.39233C138.776 2.5516 139.748 1.92104 140.846 1.50067C141.944 1.0803 143.105 0.870117 144.329 0.870117C145.553 0.870117 146.714 1.0803 147.812 1.50067C148.91 1.92104 149.864 2.5516 150.674 3.39233C151.502 4.23307 152.159 5.27485 152.645 6.51769C153.131 7.74225 153.374 9.16785 153.374 10.7945ZM167.491 20.3076C166.969 19.2293 166.312 18.0413 165.52 16.7436C164.728 15.446 163.9 14.194 163.036 12.9877C162.676 13.4629 162.28 14.0295 161.848 14.6875C161.434 15.3454 161.011 16.0217 160.579 16.7162C160.165 17.3924 159.778 18.0504 159.418 18.6901C159.058 19.3298 158.77 19.869 158.554 20.3076H154.693C155.503 18.7541 156.439 17.164 157.501 15.5374C158.563 13.8924 159.715 12.1744 160.957 10.3832L154.963 1.30876H159.013L163.144 7.8062L167.221 1.30876H171.109L165.196 10.3558C166.564 12.2384 167.77 14.0204 168.814 15.7018C169.876 17.3833 170.767 18.9186 171.487 20.3076H167.491Z" fill="#FC6027"/>
</svg>
