<svg width="46" height="46" viewBox="0 0 46 46" fill="none" xmlns="http://www.w3.org/2000/svg">
<path fill-rule="evenodd" clip-rule="evenodd" d="M12.6601 35.0533C20.3607 33.9283 25.6629 34.0251 33.3736 35.0927C33.932 35.1737 34.4423 35.4539 34.8102 35.8818C35.178 36.3096 35.3787 36.8561 35.375 37.4203C35.375 37.9603 35.1894 38.4846 34.8541 38.8941C34.2698 39.608 33.6712 40.3102 33.0586 41.0001H36.0297C36.2165 40.7773 36.4044 40.5501 36.5945 40.3195C37.2618 39.5011 37.6258 38.4774 37.625 37.4215C37.625 35.1433 35.9622 33.1802 33.6819 32.8652C25.7889 31.7728 20.2719 31.6682 12.335 32.8281C10.031 33.1645 8.375 35.158 8.375 37.4518C8.375 38.47 8.70688 39.4768 9.33575 40.2925C9.52137 40.5332 9.70475 40.7695 9.887 41.0012H12.7861C12.2162 40.3189 11.6604 39.625 11.1189 38.92C10.7971 38.4979 10.6235 37.9815 10.625 37.4507C10.625 36.2391 11.4957 35.2232 12.6601 35.0533Z" fill="#FC6027"/>
<path fill-rule="evenodd" clip-rule="evenodd" d="M23 24.125C23.8864 24.125 24.7642 23.9504 25.5831 23.6112C26.4021 23.272 27.1462 22.7748 27.773 22.148C28.3998 21.5212 28.897 20.7771 29.2362 19.9581C29.5754 19.1392 29.75 18.2614 29.75 17.375C29.75 16.4886 29.5754 15.6108 29.2362 14.7919C28.897 13.9729 28.3998 13.2288 27.773 12.602C27.1462 11.9752 26.4021 11.478 25.5831 11.1388C24.7642 10.7996 23.8864 10.625 23 10.625C21.2098 10.625 19.4929 11.3362 18.227 12.602C16.9612 13.8679 16.25 15.5848 16.25 17.375C16.25 19.1652 16.9612 20.8821 18.227 22.148C19.4929 23.4138 21.2098 24.125 23 24.125ZM23 26.375C25.3869 26.375 27.6761 25.4268 29.364 23.739C31.0518 22.0511 32 19.7619 32 17.375C32 14.9881 31.0518 12.6989 29.364 11.011C27.6761 9.32321 25.3869 8.375 23 8.375C20.6131 8.375 18.3239 9.32321 16.636 11.011C14.9482 12.6989 14 14.9881 14 17.375C14 19.7619 14.9482 22.0511 16.636 23.739C18.3239 25.4268 20.6131 26.375 23 26.375Z" fill="#FC6027"/>
<path fill-rule="evenodd" clip-rule="evenodd" d="M23 43.25C34.1836 43.25 43.25 34.1836 43.25 23C43.25 11.8164 34.1836 2.75 23 2.75C11.8164 2.75 2.75 11.8164 2.75 23C2.75 34.1836 11.8164 43.25 23 43.25ZM23 45.5C35.4268 45.5 45.5 35.4268 45.5 23C45.5 10.5733 35.4268 0.5 23 0.5C10.5733 0.5 0.5 10.5733 0.5 23C0.5 35.4268 10.5733 45.5 23 45.5Z" fill="#FC6027"/>
</svg>
