<svg width="20" height="24" viewBox="0 0 20 24" fill="none" xmlns="http://www.w3.org/2000/svg">
<path d="M13.2479 14.686C13.103 14.6375 12.1869 14.2149 12.7593 12.4342H12.7511C14.2434 10.8615 15.3838 8.33083 15.3838 5.83932C15.3838 2.00832 12.8943 0 10.0009 0C7.10574 0 4.6299 2.00738 4.6299 5.83932C4.6299 8.34109 5.7639 10.882 7.26527 12.451C7.8505 14.0218 6.80401 14.6048 6.58523 14.6869C3.55515 15.8082 0 17.8519 0 19.8696V20.6261C0 23.375 5.20875 24 10.0292 24C14.8569 24 20 23.375 20 20.6261V19.8696C20 17.7913 16.4275 15.7634 13.2479 14.686Z" fill="black" fill-opacity="0.45"/>
</svg>
